<svg width="26" height="26" viewBox="0 0 26 26" fill="none" xmlns="http://www.w3.org/2000/svg">
<circle cx="13" cy="13" r="13" fill="#E40203"/>
<path d="M11.011 6.3494C10.9478 5.71116 11.159 5.07671 11.5858 4.62291C12.3668 3.79236 13.6332 3.79236 14.4142 4.62291C14.841 5.07671 15.0522 5.71116 14.989 6.3494L14.1538 14.7869C14.0916 15.4148 13.5937 15.8915 13 15.8915C12.4063 15.8915 11.9084 15.4148 11.8462 14.7869L11.011 6.3494Z" fill="white"/>
<path d="M11.4333 20.334C11.4333 19.4139 12.1348 18.6681 13 18.6681C13.8652 18.6681 14.5667 19.4139 14.5667 20.334C14.5667 21.2541 13.8652 22 13 22C12.1348 22 11.4333 21.2541 11.4333 20.334Z" fill="white"/>
</svg>
