<svg width="15" height="60" viewBox="0 0 15 60" fill="none" xmlns="http://www.w3.org/2000/svg">
<path d="M11.6252 25.5827C12.5555 25.5827 13.288 24.7497 13.1626 23.7898C11.9572 14.5678 7.70029 6.35649 1.48597 0.295135C0.551836 -0.616002 -0.51323 0.777843 0.273828 1.82888C4.97742 8.11009 8.09822 15.7396 9.01201 24.0673C9.10571 24.9212 9.7894 25.5827 10.6148 25.5827L11.6252 25.5827Z" fill="#E2DED3"/>
<path d="M11.6252 35.4734C12.5724 35.4734 13.3101 36.3355 13.156 37.3087C11.7667 46.0837 7.60461 53.8852 1.63812 59.7049C0.703993 60.616 -0.361112 59.2222 0.425948 58.1712C4.93748 52.1464 7.99283 44.8813 9.04123 36.9494C9.15181 36.1128 9.82845 35.4734 10.6394 35.4734L11.6252 35.4734Z" fill="#E2DED3"/>
<path d="M11.9745 27.9675C11.584 27.5769 10.9508 27.5769 10.5603 27.9675L8.70674 29.821C8.31621 30.2115 8.31621 30.8447 8.70674 31.2352L10.5603 33.0888C10.9508 33.4793 11.584 33.4793 11.9745 33.0888L13.828 31.2352C14.2186 30.8447 14.2186 30.2115 13.828 29.821L11.9745 27.9675Z" fill="#E2DED3"/>
</svg>
