<svg width="8" height="61" viewBox="0 0 8 61" fill="none" xmlns="http://www.w3.org/2000/svg">
<path d="M4.7071 27.7071C4.31658 27.3166 3.68341 27.3166 3.29289 27.7071L1.20711 29.7929C0.816582 30.1834 0.816581 30.8166 1.2071 31.2071L3.29289 33.2929C3.68341 33.6834 4.31658 33.6834 4.7071 33.2929L6.79289 31.2071C7.18341 30.8166 7.18341 30.1834 6.79289 29.7929L4.7071 27.7071Z" fill="#E2DED3"/>
<path d="M4.29915 0.388533C4.27074 0.0192121 3.72932 0.0192101 3.70091 0.388532L2.15342 23.5059C2.07068 24.5816 2.92118 25.5 4.00003 25.5C5.07887 25.5 5.92938 24.5816 5.84664 23.5059L4.29915 0.388533Z" fill="#E2DED3"/>
<path d="M4.2991 60.6115C4.27069 60.9808 3.72928 60.9808 3.70087 60.6115L2.15338 37.4941C2.07064 36.4184 2.92114 35.5 3.99999 35.5C5.07883 35.5 5.92934 36.4184 5.84659 37.4941L4.2991 60.6115Z" fill="#E2DED3"/>
</svg>
