<svg width="15" height="60" viewBox="0 0 15 60" fill="none" xmlns="http://www.w3.org/2000/svg">
<path d="M3.37476 34.4173C2.44449 34.4173 1.71197 35.2503 1.83744 36.2102C3.04283 45.4322 7.2997 53.6435 13.514 59.7049C14.4482 60.616 15.5132 59.2222 14.7262 58.1711C10.0226 51.8899 6.90178 44.2604 5.98799 35.9327C5.89429 35.0788 5.2106 34.4173 4.38524 34.4173L3.37476 34.4173Z" fill="#E2DED3"/>
<path d="M3.37476 24.5266C2.42758 24.5266 1.68988 23.6645 1.84397 22.6913C3.23332 13.9163 7.39538 6.11475 13.3619 0.295138C14.296 -0.615999 15.3611 0.777796 14.574 1.82884C10.0625 7.85355 7.00716 15.1187 5.95877 23.0506C5.84819 23.8872 5.17154 24.5266 4.36058 24.5266L3.37476 24.5266Z" fill="#E2DED3"/>
<path d="M3.0255 32.0325C3.41602 32.4231 4.04919 32.4231 4.43971 32.0325L6.29326 30.179C6.68378 29.7885 6.68378 29.1553 6.29326 28.7648L4.43971 26.9112C4.04919 26.5207 3.41602 26.5207 3.0255 26.9112L1.17195 28.7648C0.781424 29.1553 0.781423 29.7885 1.17195 30.179L3.0255 32.0325Z" fill="#E2DED3"/>
</svg>
