<svg width="66" height="156" viewBox="0 0 66 156" fill="none" xmlns="http://www.w3.org/2000/svg">
<g clip-path="url(#clip0_36_245)">
<path d="M15.558 77.9005C15.558 80.8852 13.3779 83.3724 10.6031 83.9694C10.2067 84.0689 9.8103 84.0689 9.4139 84.0689C8.81931 84.0689 8.22471 83.9694 7.63012 83.7704C5.15264 82.9745 3.26976 80.6862 3.26976 77.9005C3.26976 75.1148 5.05354 72.8265 7.53102 72.0306C8.12562 71.8316 8.81931 71.7321 9.4139 71.7321C9.8103 71.7321 10.1076 71.7321 10.504 71.8316C13.3779 72.3291 15.558 74.8163 15.558 77.9005ZM18.7292 76.6071H31.9094C32.7022 76.6071 33.2968 77.2041 33.2968 78C33.2968 78.7959 32.7022 79.3929 31.9094 79.3929H18.6301C17.9364 83.3724 14.8644 86.4566 10.9004 87.1531C10.4049 87.2525 9.9094 87.2525 9.31481 87.2525C8.81931 87.2525 8.32381 87.2525 7.82832 87.1531C3.36886 86.4566 -0.0996094 82.5765 -0.0996094 77.801C-0.0996094 73.125 3.26976 69.2449 7.72922 68.5485C10.2067 46.3622 22.0986 27.0612 39.2427 14.7245C39.8373 14.227 40.8283 14.426 41.2247 15.1224L41.3238 15.3214C41.7202 15.9184 41.522 16.8138 40.9274 17.2117C24.5761 29.051 13.1797 47.4566 10.7022 68.5485C14.9635 69.1454 18.2337 72.4286 18.7292 76.6071ZM16.8463 77.9005C16.8463 74.2194 14.1707 71.1352 10.6031 70.5383C10.2067 70.4388 9.8103 70.4388 9.4139 70.4388C8.81931 70.4388 8.22471 70.5383 7.63012 70.6377C4.35985 71.4337 1.98147 74.4184 1.98147 77.9005C1.98147 81.3827 4.45895 84.3673 7.72922 85.1633C8.22472 85.2627 8.81931 85.3622 9.4139 85.3622C9.9094 85.3622 10.3058 85.3622 10.7022 85.2627C14.1707 84.5663 16.8463 81.4821 16.8463 77.9005ZM56.5851 140.48C54.3058 140.48 52.4229 141.673 51.3328 143.464C50.8373 144.36 50.54 145.355 50.4409 146.349C50.4409 146.449 50.4409 146.548 50.4409 146.548C50.4409 149.931 53.2157 152.717 56.5851 152.717C58.468 152.717 60.0535 151.921 61.2427 150.628C61.9364 149.832 62.4319 148.936 62.6301 147.941C62.7292 147.543 62.7292 147.046 62.7292 146.648C62.7292 143.166 59.9544 140.48 56.5851 140.48ZM31.513 126.75C30.8193 126.75 30.2247 126.949 29.7292 127.148C28.8373 127.645 28.0445 128.441 27.6481 129.337C27.4499 129.834 27.3508 130.332 27.3508 130.829C27.3508 133.117 29.2337 135.008 31.513 135.008C32.1076 135.008 32.6031 134.908 33.0986 134.709C34.0896 134.311 34.8824 133.515 35.2788 132.62C35.5761 132.122 35.6752 131.525 35.6752 130.829C35.6752 128.541 33.7923 126.75 31.513 126.75ZM38.6481 130.829C38.6481 132.222 38.2517 133.515 37.558 134.61C37.0626 135.505 36.2698 136.202 35.477 136.798C34.2878 137.594 32.9995 137.992 31.513 137.992C27.549 137.992 24.3779 134.809 24.3779 130.829C24.3779 129.337 24.7743 128.043 25.5671 126.949C26.1617 126.054 26.8553 125.357 27.7472 124.86C28.8373 124.163 30.1256 123.765 31.6121 123.765C35.477 123.666 38.6481 126.949 38.6481 130.829ZM36.6662 130.829C36.6662 127.944 34.3869 125.656 31.513 125.656C30.6211 125.656 29.7292 125.855 29.0355 126.352C28.1436 126.849 27.3508 127.645 26.9544 128.541C26.5581 129.237 26.3599 130.033 26.3599 130.829C26.3599 133.714 28.6391 136.003 31.513 136.003C32.4049 136.003 33.1977 135.804 33.8914 135.406C34.7833 134.908 35.5761 134.212 36.0716 133.217C36.468 132.62 36.6662 131.724 36.6662 130.829ZM60.549 7.16326C60.2517 6.16837 59.7562 5.27296 58.9635 4.47704C57.9725 3.48214 56.6842 2.98469 55.1977 2.98469C52.1256 2.98469 49.7472 5.37245 49.6481 8.45663V8.55612C49.6481 9.65051 49.9454 10.5459 50.4409 11.4413C51.4319 13.0332 53.1166 14.1276 55.1977 14.1276C58.2698 14.1276 60.7472 11.6403 60.7472 8.55612C60.7472 8.05867 60.6481 7.56122 60.549 7.16326ZM63.7202 8.45663C63.7202 13.1327 59.9544 16.9133 55.2968 16.9133C52.1256 16.9133 49.4499 15.2219 47.9635 12.6352C47.468 11.7398 47.0716 10.8444 46.9725 9.75C46.8734 9.25255 46.8734 8.85459 46.8734 8.35714C46.7743 3.78061 50.54 0 55.1977 0C57.9725 0 60.549 1.39286 62.0355 3.48214C62.6301 4.27806 63.0265 5.17347 63.3238 6.16837C63.6211 6.96429 63.7202 7.7602 63.7202 8.45663ZM61.7382 8.45663C61.7382 7.85969 61.6391 7.26275 61.54 6.76531C61.2427 5.77041 60.7472 4.875 60.0535 4.07908C58.8644 2.78571 57.0806 1.9898 55.1977 1.9898C51.6301 1.9898 48.6571 4.875 48.6571 8.45663C48.6571 8.55612 48.6571 8.7551 48.6571 8.85459C48.6571 9.94898 49.0535 10.9439 49.549 11.7398C50.6391 13.6301 52.7202 14.9235 55.0986 14.9235C58.7653 15.023 61.7382 12.1378 61.7382 8.45663ZM65.9995 146.648C65.9995 147.444 65.9004 148.14 65.7022 148.837C65.504 149.832 65.1076 150.827 64.513 151.622C62.8283 154.309 59.9544 156.099 56.5851 156.099C51.4319 156.099 47.1707 151.821 47.1707 146.648C47.1707 146.051 47.2698 145.355 47.3689 144.857C47.5671 143.862 47.9635 142.867 48.459 141.972C50.0445 139.087 53.1166 137.196 56.5851 137.196C57.1797 137.196 57.7743 137.296 58.3689 137.395L61.54 128.541C61.7382 128.043 61.4409 127.446 60.9454 127.247C54.9004 125.158 49.4499 122.074 44.5941 118.194L40.2337 123.566C39.7382 124.163 38.8463 124.263 38.2517 123.765C37.6571 123.268 37.558 122.372 38.0535 121.776L42.513 116.403C37.7562 112.125 33.6932 107.051 30.7202 101.38C30.522 100.883 29.9274 100.684 29.4319 100.982L16.4499 106.753L16.1526 106.852C14.7653 107.449 13.1797 106.852 12.5851 105.459C11.1977 102.077 10.1076 98.4949 9.31481 94.8138C9.11661 94.0179 9.6121 93.3214 10.4049 93.1224H10.6031C11.3959 92.9235 12.0896 93.4209 12.2878 94.2168C12.9815 97.301 13.9725 100.385 15.0626 103.27C15.2608 103.768 15.8553 104.066 16.3508 103.867L29.0355 98.1964L29.4319 97.9974C30.7202 97.4005 32.2067 97.9974 32.9004 99.1913C32.9004 99.2908 32.9995 99.3903 32.9995 99.3903C35.8734 104.962 39.7382 109.936 44.3959 114.115C45.0896 114.712 45.7833 115.309 46.477 115.906C51.3328 119.786 56.8824 122.87 62.9274 124.86C64.3148 125.357 65.1076 126.849 64.6121 128.342L64.513 128.541L60.9454 138.49C64.0175 139.883 65.9995 142.967 65.9995 146.648ZM64.0175 146.648C64.0175 142.569 60.7472 139.186 56.5851 139.186C53.8103 139.186 51.4319 140.679 50.1436 142.867C49.6481 143.763 49.2517 144.758 49.1526 145.753C49.1526 146.051 49.1526 146.349 49.1526 146.548C49.1526 150.628 52.522 154.01 56.5851 154.01C59.0625 154.01 61.1436 152.816 62.531 151.025C63.1256 150.23 63.522 149.235 63.8193 148.24C63.9184 147.742 64.0175 147.145 64.0175 146.648Z" fill="#BAEFFB"/>
</g>
<defs>
<clipPath id="clip0_36_245">
<rect width="66" height="156" fill="white"/>
</clipPath>
</defs>
</svg>
