<svg width="66" height="156" viewBox="0 0 66 156" fill="none" xmlns="http://www.w3.org/2000/svg">
<g clip-path="url(#clip0_36_247)">
<path d="M50.3414 77.9005C50.3414 80.8852 52.5215 83.3724 55.2963 83.9694C55.6927 84.0689 56.0891 84.0689 56.4855 84.0689C57.0801 84.0689 57.6747 83.9694 58.2693 83.7704C60.7468 82.9745 62.6297 80.6862 62.6297 77.9005C62.6297 75.1148 60.8459 72.8265 58.3684 72.0306C57.7738 71.8316 57.0801 71.7321 56.4855 71.7321C56.0891 71.7321 55.7918 71.7321 55.3954 71.8316C52.5215 72.3291 50.3414 74.8163 50.3414 77.9005ZM47.1702 76.6071H33.99C33.1972 76.6071 32.6026 77.2041 32.6026 78C32.6026 78.7959 33.1972 79.3929 33.99 79.3929H47.2693C47.963 83.3724 51.0351 86.4566 54.999 87.1531C55.4945 87.2525 55.99 87.2525 56.5846 87.2525C57.0801 87.2525 57.5756 87.2525 58.0711 87.1531C62.5306 86.4566 65.999 82.5765 65.999 77.801C65.999 73.125 62.6297 69.2449 58.1702 68.5485C55.6927 46.3622 43.8008 27.0612 26.6567 14.7245C26.0621 14.227 25.0711 14.426 24.6747 15.1224L24.5756 15.3214C24.1792 15.9184 24.3774 16.8138 24.972 17.2117C41.3233 29.051 52.7197 47.4566 55.1972 68.5485C50.936 69.1454 47.6657 72.4286 47.1702 76.6071ZM49.0531 77.9005C49.0531 74.2194 51.7288 71.1352 55.2963 70.5383C55.6927 70.4388 56.0891 70.4388 56.4855 70.4388C57.0801 70.4388 57.6747 70.5383 58.2693 70.6377C61.5396 71.4337 63.9179 74.4184 63.9179 77.9005C63.9179 81.3827 61.4405 84.3673 58.1702 85.1633C57.6747 85.2627 57.0801 85.3622 56.4855 85.3622C55.99 85.3622 55.5936 85.3622 55.1972 85.2627C51.7288 84.5663 49.0531 81.4821 49.0531 77.9005ZM9.31434 140.48C11.5936 140.48 13.4765 141.673 14.5666 143.464C15.0621 144.36 15.3594 145.355 15.4585 146.349C15.4585 146.449 15.4585 146.548 15.4585 146.548C15.4585 149.931 12.6837 152.717 9.31434 152.717C7.43146 152.717 5.84587 151.921 4.65668 150.628C3.96299 149.832 3.46749 148.936 3.26929 147.941C3.1702 147.543 3.1702 147.046 3.1702 146.648C3.1702 143.166 5.94497 140.48 9.31434 140.48ZM34.3864 126.75C35.0801 126.75 35.6747 126.949 36.1702 127.148C37.0621 127.645 37.8549 128.441 38.2513 129.337C38.4495 129.834 38.5486 130.332 38.5486 130.829C38.5486 133.117 36.6657 135.008 34.3864 135.008C33.7918 135.008 33.2963 134.908 32.8008 134.709C31.8098 134.311 31.017 133.515 30.6206 132.62C30.3233 132.122 30.2243 131.525 30.2243 130.829C30.2243 128.541 32.1071 126.75 34.3864 126.75ZM27.2513 130.829C27.2513 132.222 27.6477 133.515 28.3414 134.61C28.8369 135.505 29.6297 136.202 30.4224 136.798C31.6116 137.594 32.8999 137.992 34.3864 137.992C38.3504 137.992 41.5215 134.809 41.5215 130.829C41.5215 129.337 41.1252 128.043 40.3324 126.949C39.7378 126.054 39.0441 125.357 38.1522 124.86C37.0621 124.163 35.7738 123.765 34.2873 123.765C30.4224 123.666 27.2513 126.949 27.2513 130.829ZM29.2333 130.829C29.2333 127.944 31.5125 125.656 34.3864 125.656C35.2783 125.656 36.1702 125.855 36.8639 126.352C37.7558 126.849 38.5486 127.645 38.945 128.541C39.3414 129.237 39.5396 130.033 39.5396 130.829C39.5396 133.714 37.2603 136.003 34.3864 136.003C33.4945 136.003 32.7017 135.804 32.008 135.406C31.1161 134.908 30.3233 134.212 29.8279 133.217C29.4315 132.62 29.2333 131.724 29.2333 130.829ZM5.35038 7.16326C5.64767 6.16837 6.14317 5.27296 6.93596 4.47704C7.92695 3.48214 9.21524 2.98469 10.7017 2.98469C13.7738 2.98469 16.1522 5.37245 16.2513 8.45663V8.55612C16.2513 9.65051 15.954 10.5459 15.4585 11.4413C14.4675 13.0332 12.7828 14.1276 10.7017 14.1276C7.62965 14.1276 5.15218 11.6403 5.15218 8.55612C5.15218 8.05867 5.25128 7.56122 5.35038 7.16326ZM2.1792 8.45663C2.1792 13.1327 5.94497 16.9133 10.6026 16.9133C13.7738 16.9133 16.4495 15.2219 17.936 12.6352C18.4315 11.7398 18.8279 10.8444 18.927 9.75C19.0261 9.25255 19.0261 8.85459 19.0261 8.35714C19.1252 3.78061 15.3594 0 10.7017 0C7.92695 0 5.35038 1.39286 3.86389 3.48214C3.26929 4.27806 2.8729 5.17347 2.5756 6.16837C2.2783 6.96429 2.1792 7.7602 2.1792 8.45663ZM4.16119 8.45663C4.16119 7.85969 4.26029 7.26275 4.35939 6.76531C4.65668 5.77041 5.15218 4.875 5.84587 4.07908C7.03506 2.78571 8.81884 1.9898 10.7017 1.9898C14.2693 1.9898 17.2423 4.875 17.2423 8.45663C17.2423 8.55612 17.2423 8.7551 17.2423 8.85459C17.2423 9.94898 16.8459 10.9439 16.3504 11.7398C15.2603 13.6301 13.1792 14.9235 10.8008 14.9235C7.13416 15.023 4.16119 12.1378 4.16119 8.45663ZM-0.100075 146.648C-0.100075 147.444 -0.000976562 148.14 0.19722 148.837C0.395416 149.832 0.791817 150.827 1.38641 151.622C3.0711 154.309 5.94497 156.099 9.31434 156.099C14.4675 156.099 18.7288 151.821 18.7288 146.648C18.7288 146.051 18.6297 145.355 18.5306 144.857C18.3324 143.862 17.936 142.867 17.4405 141.972C15.8549 139.087 12.7828 137.196 9.31434 137.196C8.71975 137.196 8.12515 137.296 7.53056 137.395L4.35939 128.541C4.16119 128.043 4.45848 127.446 4.95398 127.247C10.999 125.158 16.4495 122.074 21.3053 118.194L25.6657 123.566C26.1612 124.163 27.0531 124.263 27.6477 123.765C28.2423 123.268 28.3414 122.372 27.8459 121.776L23.3864 116.403C28.1432 112.125 32.2062 107.051 35.1792 101.38C35.3774 100.883 35.972 100.684 36.4675 100.982L49.4495 106.753L49.7468 106.852C51.1342 107.449 52.7197 106.852 53.3143 105.459C54.7017 102.077 55.7918 98.4949 56.5846 94.8138C56.7828 94.0179 56.2873 93.3214 55.4945 93.1224H55.2963C54.5035 92.9235 53.8098 93.4209 53.6116 94.2168C52.9179 97.301 51.927 100.385 50.8369 103.27C50.6387 103.768 50.0441 104.066 49.5486 103.867L36.8639 98.1964L36.4675 97.9974C35.1792 97.4005 33.6927 97.9974 32.999 99.1913C32.999 99.2908 32.8999 99.3903 32.8999 99.3903C30.0261 104.962 26.1612 109.936 21.5035 114.115C20.8098 114.712 20.1161 115.309 19.4224 115.906C14.5666 119.786 9.01704 122.87 2.972 124.86C1.58461 125.357 0.791817 126.849 1.28732 128.342L1.38641 128.541L4.95398 138.49C1.8819 139.883 -0.100075 142.967 -0.100075 146.648ZM1.88191 146.648C1.88191 142.569 5.15218 139.186 9.31434 139.186C12.0891 139.186 14.4675 140.679 15.7558 142.867C16.2513 143.763 16.6477 144.758 16.7468 145.753C16.7468 146.051 16.7468 146.349 16.7468 146.548C16.7468 150.628 13.3774 154.01 9.31434 154.01C6.83686 154.01 4.75578 152.816 3.3684 151.025C2.7738 150.23 2.3774 149.235 2.0801 148.24C1.981 147.742 1.88191 147.145 1.88191 146.648Z" fill="#BAEFFB"/>
</g>
<defs>
<clipPath id="clip0_36_247">
<rect width="66" height="156" fill="white"/>
</clipPath>
</defs>
</svg>
