<svg width="29" height="29" viewBox="0 0 29 29" fill="none" xmlns="http://www.w3.org/2000/svg">
<path d="M19.2543 14.5C19.2543 17.168 17.1083 19.314 14.4983 19.314C11.8883 19.314 9.7423 17.168 9.7423 14.5C9.7423 11.832 11.8883 9.68602 14.4983 9.68602C17.1083 9.68602 19.2543 11.832 19.2543 14.5ZM14.4983 2.90002C13.1643 2.90002 12.1203 4.00202 12.1203 5.27802C12.1203 6.55402 13.1643 7.65602 14.4983 7.65602C15.8323 7.65602 16.8763 6.55402 16.8763 5.27802C16.8763 4.00202 15.8323 2.90002 14.4983 2.90002ZM14.4983 21.286C13.1643 21.286 12.1203 22.388 12.1203 23.664C12.1203 24.94 13.1643 26.1 14.4983 26.1C15.8323 26.1 16.8763 24.998 16.8763 23.722C16.8763 22.446 15.8323 21.286 14.4983 21.286ZM4.34831 19.894C4.92831 21.054 6.3783 21.518 7.53831 20.88C8.69831 20.242 9.1623 18.792 8.5243 17.632C7.8863 16.472 6.49431 16.008 5.33431 16.646C4.17431 17.284 3.71031 18.734 4.34831 19.894ZM20.4723 11.31C21.1103 12.47 22.5023 12.934 23.6623 12.296C24.8223 11.658 25.2863 10.208 24.6483 9.04802C24.0103 7.88802 22.6183 7.48202 21.4583 8.12002C20.2983 8.75802 19.8343 10.15 20.4723 11.31ZM4.69631 8.12002C4.00031 9.28002 4.40631 10.73 5.50831 11.426C6.61031 12.122 8.11831 11.774 8.75631 10.614C9.39431 9.45402 9.0463 8.00402 7.9443 7.30802C6.8423 6.61202 5.33431 7.01802 4.69631 8.12002ZM20.2403 17.632C19.5443 18.792 19.9503 20.242 21.0523 20.938C22.1543 21.634 23.6623 21.286 24.3003 20.126C24.9963 18.966 24.5903 17.516 23.4883 16.82C22.3863 16.124 20.9363 16.53 20.2403 17.632Z" fill="#1E658D" fill-opacity="0.8"/>
</svg>
