<svg width="29" height="29" viewBox="0 0 29 29" fill="none" xmlns="http://www.w3.org/2000/svg">
<path d="M23.8386 18.937C23.8386 22.243 21.2286 24.911 17.9806 24.911C14.7326 24.911 12.1226 22.243 12.1226 18.937C12.1226 14.877 15.8346 7.395 17.4006 4.553C17.6906 4.031 18.3866 4.031 18.6766 4.553C20.0686 7.453 23.8386 14.935 23.8386 18.937ZM8.87463 4.669C8.46863 3.857 7.30862 3.857 6.90262 4.669C5.97462 6.583 4.64062 9.541 4.64062 11.339C4.64062 13.137 6.09062 14.587 7.88862 14.587C9.68662 14.587 11.1366 13.137 11.1366 11.339C11.1366 9.541 9.86063 6.583 8.87463 4.669Z" fill="#1E658D" fill-opacity="0.8"/>
</svg>
