<svg width="37" height="40" viewBox="0 0 37 40" fill="none" xmlns="http://www.w3.org/2000/svg">
<g filter="url(#filter0_d_13_622)">
<path d="M23.1938 19.6C23.1938 22.268 21.0478 24.414 18.4378 24.414C15.8278 24.414 13.6818 22.268 13.6818 19.6C13.6818 16.932 15.8278 14.786 18.4378 14.786C21.0478 14.786 23.1938 16.932 23.1938 19.6ZM18.4378 8C17.1038 8 16.0598 9.102 16.0598 10.378C16.0598 11.654 17.1038 12.756 18.4378 12.756C19.7718 12.756 20.8158 11.654 20.8158 10.378C20.8158 9.102 19.7718 8 18.4378 8ZM18.4378 26.386C17.1038 26.386 16.0598 27.488 16.0598 28.764C16.0598 30.04 17.1038 31.2 18.4378 31.2C19.7718 31.2 20.8158 30.098 20.8158 28.822C20.8158 27.546 19.7718 26.386 18.4378 26.386ZM8.28776 24.994C8.86776 26.154 10.3178 26.618 11.4778 25.98C12.6378 25.342 13.1018 23.892 12.4638 22.732C11.8258 21.572 10.4338 21.108 9.27376 21.746C8.11376 22.384 7.64976 23.834 8.28776 24.994ZM24.4118 16.41C25.0498 17.57 26.4418 18.034 27.6018 17.396C28.7618 16.758 29.2258 15.308 28.5878 14.148C27.9498 12.988 26.5578 12.582 25.3978 13.22C24.2378 13.858 23.7738 15.25 24.4118 16.41ZM8.63576 13.22C7.93976 14.38 8.34576 15.83 9.44776 16.526C10.5498 17.222 12.0578 16.874 12.6958 15.714C13.3338 14.554 12.9858 13.104 11.8838 12.408C10.7818 11.712 9.27376 12.118 8.63576 13.22ZM24.1798 22.732C23.4838 23.892 23.8898 25.342 24.9918 26.038C26.0938 26.734 27.6018 26.386 28.2398 25.226C28.9358 24.066 28.5298 22.616 27.4278 21.92C26.3258 21.224 24.8758 21.63 24.1798 22.732Z" fill="#C9FAFF" fill-opacity="0.8"/>
</g>
<defs>
<filter id="filter0_d_13_622" x="-4.06055" y="-2.90002" width="45" height="45" filterUnits="userSpaceOnUse" color-interpolation-filters="sRGB">
<feFlood flood-opacity="0" result="BackgroundImageFix"/>
<feColorMatrix in="SourceAlpha" type="matrix" values="0 0 0 0 0 0 0 0 0 0 0 0 0 0 0 0 0 0 127 0" result="hardAlpha"/>
<feOffset/>
<feGaussianBlur stdDeviation="4"/>
<feColorMatrix type="matrix" values="0 0 0 0 0.308377 0 0 0 0 0.751016 0 0 0 0 1 0 0 0 1 0"/>
<feBlend mode="hard-light" in2="BackgroundImageFix" result="effect1_dropShadow_13_622"/>
<feBlend mode="normal" in="SourceGraphic" in2="effect1_dropShadow_13_622" result="shape"/>
</filter>
</defs>
</svg>
