<svg width="29" height="29" viewBox="0 0 29 29" fill="none" xmlns="http://www.w3.org/2000/svg">
<path d="M23.5484 20.358C23.5484 22.562 21.6924 24.302 19.4304 24.302H6.03239C5.85839 24.302 5.74239 24.302 5.62639 24.244C4.11839 24.07 2.90039 22.794 2.90039 21.286C2.90039 19.778 4.06039 18.502 5.62639 18.328C5.68439 15.196 8.41039 12.644 11.7164 12.644C14.5004 12.644 16.8204 14.384 17.5164 16.82C18.0964 16.53 18.7344 16.356 19.4304 16.356C21.6924 16.414 23.5484 18.212 23.5484 20.358ZM23.2004 7.65603C22.0404 6.14803 20.2424 5.22003 18.1544 5.22003C16.0664 5.22003 14.2684 6.20603 13.1084 7.65603H13.0504C11.0784 7.65603 9.51239 9.10603 9.33839 10.962C10.2664 10.614 11.2524 10.44 12.2384 10.44C14.9064 10.44 17.4004 11.774 18.8504 13.92L19.0244 14.21L19.3724 14.152C19.5464 14.152 19.7204 14.152 19.8944 14.152C20.9964 14.152 21.9244 14.326 22.9684 14.732C24.9404 14.616 26.5644 13.166 26.5644 11.252C26.5644 9.33803 25.1144 7.77203 23.2004 7.65603Z" fill="#1E658D" fill-opacity="0.8"/>
</svg>
